<?xml version="1.0" standalone="no"?>
<!DOCTYPE svg PUBLIC "-//W3C//DTD SVG 20010904//EN"
 "http://www.w3.org/TR/2001/REC-SVG-20010904/DTD/svg10.dtd">
<svg version="1.0" xmlns="http://www.w3.org/2000/svg"
 width="1024.000000pt" height="1024.000000pt" viewBox="0 0 1024.000000 1024.000000"
 preserveAspectRatio="xMidYMid meet">
<metadata>
Created by potrace 1.16, written by Peter Selinger 2001-2019
</metadata>
<g transform="translate(0.000000,1024.000000) scale(0.100000,-0.100000)"
fill="#000000" stroke="none">
<path d="M5225 7511 c-118 -54 -284 -276 -335 -447 l-12 -40 -75 -13 c-81 -14
-216 -59 -328 -111 -243 -111 -509 -366 -641 -613 -186 -352 -220 -752 -96
-1132 94 -286 275 -558 567 -851 184 -185 310 -289 529 -441 190 -131 243
-157 310 -156 68 2 121 28 301 151 565 384 957 838 1105 1282 132 392 91 832
-107 1175 -198 340 -531 599 -861 667 -139 29 -309 11 -401 -43 -18 -11 -36
-18 -38 -15 -8 7 17 75 54 149 22 44 62 98 112 150 99 105 111 123 111 172 0
51 -28 97 -73 118 -45 22 -72 21 -122 -2z m-344 -818 c17 -46 56 -97 89 -117
51 -30 113 -24 179 19 31 20 85 50 121 68 59 29 74 32 155 32 108 0 162 -14
280 -73 116 -57 200 -120 301 -224 166 -171 264 -353 305 -562 25 -127 27
-340 4 -452 -22 -107 -69 -244 -114 -329 -97 -186 -388 -527 -624 -729 -143
-123 -402 -306 -432 -306 -10 0 -229 142 -300 195 -205 152 -443 401 -653 680
-76 101 -167 290 -197 409 -105 413 13 830 316 1122 162 155 387 276 547 293
7 0 17 -11 23 -26z"/>
<path d="M4505 5918 c-39 -14 -92 -64 -116 -110 -86 -167 43 -368 218 -344
195 26 274 268 132 403 -62 58 -155 79 -234 51z m104 -62 c41 -43 26 -112 -29
-141 -50 -26 -94 -16 -132 29 -21 25 -22 52 -4 85 30 54 125 70 165 27z"/>
<path d="M5627 5916 c-47 -17 -72 -39 -103 -92 -96 -163 3 -359 181 -359 154
1 257 128 225 279 -29 140 -169 219 -303 172z m110 -58 c17 -16 23 -33 23 -64
0 -37 -5 -47 -33 -68 -43 -33 -87 -33 -125 -1 -59 49 -48 120 21 151 40 17 84
10 114 -18z"/>
<path d="M5250 5183 c-53 -13 -113 -12 -255 3 -45 5 -53 3 -75 -21 -33 -35
-34 -104 -1 -139 65 -70 296 -84 411 -26 48 24 61 41 67 88 4 33 1 44 -23 70
-37 39 -56 43 -124 25z"/>
<path d="M4156 3180 c-15 -5 -37 -17 -49 -27 -18 -16 -108 -194 -181 -358 -15
-33 -41 -92 -59 -130 l-32 -70 -61 140 c-190 437 -196 445 -291 445 -47 0 -59
-4 -84 -29 -54 -55 -48 -74 135 -461 189 -397 210 -430 290 -430 57 0 97 19
130 62 13 18 100 186 192 373 138 281 167 347 167 383 0 51 -29 87 -82 102
-41 11 -36 11 -75 0z"/>
<path d="M5314 3170 c-23 -9 -45 -29 -52 -44 -9 -20 -12 -129 -12 -412 l0
-386 34 -34 c28 -28 42 -34 75 -34 23 0 55 7 70 14 54 29 57 42 64 290 6 199
10 234 27 274 26 58 45 79 94 104 34 17 51 19 113 14 72 -7 74 -6 103 23 54
53 34 153 -36 186 -74 35 -178 10 -246 -60 -21 -22 -39 -37 -41 -34 -1 2 -10
21 -19 41 -29 62 -107 89 -174 58z"/>
<path d="M6666 3179 c-37 -10 -74 -46 -92 -87 l-14 -34 -46 41 c-147 130 -391
102 -540 -62 -83 -93 -124 -196 -124 -317 0 -133 47 -247 142 -343 149 -150
384 -167 532 -37 40 36 42 36 50 7 3 -12 19 -36 35 -51 24 -23 42 -30 86 -34
52 -4 56 -3 90 31 l35 35 2 364 c1 408 2 393 -13 430 -19 48 -85 74 -143 57z
m-249 -224 c124 -52 181 -179 142 -319 -12 -42 -77 -119 -120 -141 -122 -64
-258 -21 -322 99 -31 58 -31 194 0 251 26 50 67 89 113 109 46 20 141 20 187
1z"/>
<path d="M4621 3164 c-82 -22 -148 -62 -208 -129 -80 -87 -114 -165 -121 -274
-8 -144 32 -257 127 -363 134 -150 355 -187 549 -92 85 42 116 79 108 133 -12
81 -80 107 -172 66 -119 -54 -235 -41 -306 33 -34 36 -58 72 -58 89 0 4 125 8
278 8 247 0 281 2 305 18 86 56 41 269 -84 396 -112 114 -265 156 -418 115z
m210 -225 c32 -23 89 -103 89 -126 0 -10 -32 -13 -142 -13 -79 0 -166 3 -195
6 l-52 7 19 36 c23 45 65 85 110 106 47 21 130 14 171 -16z"/>
</g>
</svg>
